<svg xmlns="http://www.w3.org/2000/svg" viewBox="0 0 43.81 39.55"><defs><style>.cls-1{fill:#fff;}</style></defs><g id="Layer_2" data-name="Layer 2"><g id="Layer_1-2" data-name="Layer 1"><path class="cls-1" d="M6.46,10.68a60.71,60.71,0,0,0,5.77,11A43.38,43.38,0,0,0,20.52,31a35.67,35.67,0,0,0,10.84,6.22,41.62,41.62,0,0,0,12.45,2.31A42,42,0,0,1,31.11,38a37,37,0,0,1-11.59-5.71,45.88,45.88,0,0,1-9.26-9.15A63.13,63.13,0,0,1,3.49,12a1.62,1.62,0,1,1,2.92-1.4.36.36,0,0,1,0,.09Z"/><polygon class="cls-1" points="0 19.02 5.96 13.61 13.99 14.14 1.21 0 0 19.02"/></g></g></svg>