<svg xmlns="http://www.w3.org/2000/svg" viewBox="0 0 43.81 39.55"><defs><style>.cls-1{fill:#fff;}</style></defs><g id="Layer_2" data-name="Layer 2"><g id="Layer_1-2" data-name="Layer 1"><path class="cls-1" d="M37.35,28.87a60.76,60.76,0,0,0-5.78-11,43.33,43.33,0,0,0-8.28-9.29A35.88,35.88,0,0,0,12.45,2.32,41.62,41.62,0,0,0,0,0,42,42,0,0,1,12.7,1.55,37,37,0,0,1,24.29,7.26a46.14,46.14,0,0,1,9.26,9.15,63.73,63.73,0,0,1,6.77,11.16A1.62,1.62,0,1,1,37.4,29a.36.36,0,0,1,0-.09Z" transform="translate(0 0)"/><polygon class="cls-1" points="43.81 20.54 37.85 25.95 29.82 25.41 42.6 39.55 43.81 20.54"/></g></g></svg>