<svg xmlns="http://www.w3.org/2000/svg" viewBox="0 0 16.47 58.08"><defs><style>.cls-1{fill:#fff;}</style></defs><g id="Layer_2" data-name="Layer 2"><g id="Layer_1-2" data-name="Layer 1"><path class="cls-1" d="M6,46.81A60.18,60.18,0,0,0,9.72,34.93a43.21,43.21,0,0,0,.72-12.43A35.93,35.93,0,0,0,7.17,10.43,41.58,41.58,0,0,0,0,0,42.18,42.18,0,0,1,7.89,10.06,37.05,37.05,0,0,1,12.05,22.3a45.44,45.44,0,0,1,.07,13A62.45,62.45,0,0,1,9,48,1.62,1.62,0,0,1,6,46.92l0-.09Z"/><polygon class="cls-1" points="16.47 45.49 8.43 45.1 3.13 39.05 2.17 58.08 16.47 45.49"/></g></g></svg>