<svg xmlns="http://www.w3.org/2000/svg" viewBox="0 0 27.86 52.13"><defs><style>.cls-1{fill:#fff;}</style></defs><g id="Layer_2" data-name="Layer 2"><g id="Layer_1-2" data-name="Layer 1"><path class="cls-1" d="M19.13,8.09a59.11,59.11,0,0,0-8.92,8.69A43.11,43.11,0,0,0,3.67,27.37,35.79,35.79,0,0,0,.81,39.54,42,42,0,0,0,2.16,52.13,42.35,42.35,0,0,1,0,39.52,37.09,37.09,0,0,1,2.16,26.78,45.83,45.83,0,0,1,8.28,15.29,63.34,63.34,0,0,1,17,5.61,1.62,1.62,0,0,1,19.22,8l-.08.06Z" transform="translate(0)"/><polygon class="cls-1" points="9.3 4.28 16.18 8.44 17.97 16.29 27.86 0 9.3 4.28"/></g></g></svg>