<svg xmlns="http://www.w3.org/2000/svg" width="35" height="35" viewBox="0 0 35 35"><defs><style>.cls-1,.cls-2{fill:none;stroke:#cd5052;}.cls-1{stroke-linecap:round;stroke-linejoin:round;}</style></defs><g id="Layer_2" data-name="Layer 2"><g id="Layer_1-2" data-name="Layer 1"><circle class="cls-1" cx="17.5" cy="17.5" r="17"/><path class="cls-2" d="M20.68,28.56a.54.54,0,0,1-.08.34.48.48,0,0,1-.37.1H17.09c-.19,0-.32,0-.37-.1a.54.54,0,0,1-.08-.34V16.26H14.2a.52.52,0,0,1-.37-.09.6.6,0,0,1-.08-.35V13.75a.6.6,0,0,1,.08-.35.52.52,0,0,1,.37-.09h6a.53.53,0,0,1,.37.09.6.6,0,0,1,.08.35Zm.57-20a2.58,2.58,0,0,1-.76,1.88A2.62,2.62,0,0,1,16,8.6a2.46,2.46,0,0,1,.76-1.85,2.68,2.68,0,0,1,3.72,0A2.5,2.5,0,0,1,21.25,8.6Z"/></g></g></svg>