<svg xmlns="http://www.w3.org/2000/svg" width="32.36" height="31" viewBox="0 0 32.36 31"><defs><style>.cls-1{fill:none;stroke:#cd5052;stroke-linecap:round;stroke-linejoin:round;}</style></defs><g id="Layer_2" data-name="Layer 2"><g id="Layer_1-2" data-name="Layer 1"><line class="cls-1" x1="31.86" y1="4.59" x2="12.77" y2="4.59"/><line class="cls-1" x1="5.95" y1="4.59" x2="0.5" y2="4.59"/><line class="cls-1" x1="31.86" y1="15.5" x2="27.77" y2="15.5"/><line class="cls-1" x1="20.95" y1="15.5" x2="0.5" y2="15.5"/><line class="cls-1" x1="31.86" y1="26.41" x2="8.68" y2="26.41"/><line class="cls-1" x1="1.86" y1="26.41" x2="0.5" y2="26.41"/><path class="cls-1" d="M8,8.68H8a2,2,0,0,1-2-2V2.55A2.05,2.05,0,0,1,8,.5H8a2.05,2.05,0,0,1,2.05,2.05V6.64A2,2,0,0,1,8,8.68Z"/><path class="cls-1" d="M23,19.59h0a2,2,0,0,1-2.05-2v-4.1a2,2,0,0,1,2.05-2h0a2,2,0,0,1,2.05,2v4.1A2,2,0,0,1,23,19.59Z"/><path class="cls-1" d="M3.91,30.5h0a2.05,2.05,0,0,1-2-2.05V24.36a2,2,0,0,1,2.05-2h0a2,2,0,0,1,2,2v4.09A2,2,0,0,1,3.91,30.5Z"/></g></g></svg>