<svg xmlns="http://www.w3.org/2000/svg" width="28.41" height="31" viewBox="0 0 28.41 31">
    <defs>
        <style>.cls-1,.cls-2{fill:none;stroke:#fff;stroke-linejoin:round;}.cls-1{stroke-linecap:round;}</style>
    </defs>
    <g id="Layer_2" data-name="Layer 2">
        <g id="Layer_1-2" data-name="Layer 1">
            <path class="cls-1" d="M7,8.33H.5L8.33.5V7A1.31,1.31,0,0,1,7,8.33Z"/>
            <path class="cls-1" d="M25.28,18.84V29.2A1.3,1.3,0,0,1,24,30.5H1.8A1.3,1.3,0,0,1,.5,29.2V11"/>
            <path class="cls-1" d="M10.93.5H24a1.3,1.3,0,0,1,1.3,1.3V8.33"/>
            <polygon class="cls-1" points="16.84 24.3 11.77 26.6 14.07 21.53 25.14 10.46 27.91 13.23 16.84 24.3"/>
            <line class="cls-2" x1="25.74" y1="15.4" x2="22.96" y2="12.63"/>
            <line class="cls-2" x1="16.83" y1="24.3" x2="14.07" y2="21.53"/>
        </g>
    </g>
</svg>