<svg xmlns="http://www.w3.org/2000/svg" xmlns:xlink="http://www.w3.org/1999/xlink" width="287.75" height="318.47" viewBox="0 0 287.75 318.47"><defs><style>.cls-1{fill:none;}.cls-2{clip-path:url(#clip-path);}.cls-3,.cls-4{fill:#fff;}.cls-3{isolation:isolate;opacity:0.5;}</style><clipPath id="clip-path" transform="translate(38.75)"><rect class="cls-1" width="265.1" height="316.91"/></clipPath></defs><g id="Layer_2" data-name="Layer 2"><g id="Layer_1-2" data-name="Layer 1"><g id="texture"><g class="cls-2"><path class="cls-3" d="M-38.75,310.29l11.48,6.62h-1.91l-9.57-5.52Zm262-8.22L249,316.91h-1.92l-23.79-13.73L199.5,316.91h-1.91l25.7-14.84ZM9,67.73a2.85,2.85,0,0,1,2.52,4.18L28.91,82a1.52,1.52,0,0,1,.68-.57,1.53,1.53,0,1,1,.68,2.93v20.55a2.4,2.4,0,0,1-.09,4.8,2.42,2.42,0,0,1-2-1.12l-14.82,8.55,16.57,9.55,27.66-15.93L85.67,127v32l27.6,15.91v32.41L94.81,217.88l18.43,10.64a2.1,2.1,0,0,1,1.66-.91H115a2.1,2.1,0,0,1,1.75.93l17.64-10.18-.08-.15a2,2,0,1,1,3.93-.78,2.08,2.08,0,0,1-.23.95l17.36,10a2.38,2.38,0,1,1,2,3.64h0v19.48a2.58,2.58,0,0,1,1.75.71l.07.06a2.61,2.61,0,1,1-4.1,3.18l-18,10.48a1,1,0,0,1,.09.42,1,1,0,0,1-1,1h.05v20.37a3.1,3.1,0,0,1,3.05,3v.08a3,3,0,0,1-.37,1.46L155.66,302a2.08,2.08,0,0,1,.94-.79,2,2,0,1,1,.86,3.91v3.06l10.59-6.11,25.7,14.84h-1.92l-23.78-13.72-10.59,6.1v7.62h-.18V309.4l-13,7.51h-1.93l14.95-8.63v-3.16a2,2,0,0,1-1.93-2v-.07a2,2,0,0,1,.23-.93l-16.76-9.68a3.1,3.1,0,0,1-5.28,0l-16.21,9.36a2.65,2.65,0,0,1-.16,2.75l21.34,12.31h-1.92L116.45,305.3a2.72,2.72,0,0,1-1.38.44v11.17h-.18V305.74a2.65,2.65,0,0,1-2.36-1.64,2.59,2.59,0,0,1-.18-.66L89,316.91H87.08l25.22-14.56v-.67l-16.55-9.55a2.33,2.33,0,0,1-1.87,1h-.09a2.32,2.32,0,0,1-2-1.08L74.38,302.16a1.94,1.94,0,0,1,.23.93,2,2,0,0,1-2,2v5.68l10.58,6.1H81.32l-8.66-5v5h-.18v-5.1l-15-8.62L33.74,316.91H31.82l25.23-14.56v-8.09l-3.45-2a2.65,2.65,0,0,1-2.14,1.21h-.08a2.64,2.64,0,0,1-1.86-.76,3.32,3.32,0,0,1-.37-.47l-16,9.24a3.42,3.42,0,0,1,.4,1.6,3.36,3.36,0,0,1-2.09,3.12,3.29,3.29,0,0,1-1.19.25v10.45h-.18V306.46a3.38,3.38,0,0,1-3-4.67,2.59,2.59,0,0,1,.14-.29l-17.12-9.9a1.33,1.33,0,0,1-2.2,0l-5.12,2.95v7.8l11,6.36L28,316.91H26.07L2.28,303.19l-14.4,8.31v5.41h-.18V311.6l-9.22,5.31h-1.91l11.13-6.42v-7a.41.41,0,0,1-.33-.36v0a.41.41,0,0,1,.41-.41.4.4,0,0,1,.3.13L1.8,294.89V271l-27.17-15.67-13.38,7.72V262l12.91-7.45V223.16l-12.91-7.46v-1.11l13.4,7.74L1.8,206.66V175.31l-27.15-15.67-13.4,7.74v-1.11l12.92-7.46V127.47L-38.75,120V118.9l13.43,7.76,23.23-13.41L-11.2,108a1.23,1.23,0,0,1-1,.54h-.06a1.23,1.23,0,0,1-1.23-1.23,1.24,1.24,0,0,1,1.15-1.23V83.75a1,1,0,0,1-.87-1,1,1,0,0,1,.95-1,1,1,0,0,1,.79.42L6.46,71.93a2.9,2.9,0,0,1-.33-1.35A2.85,2.85,0,0,1,9,67.73ZM58,294.8v7.54l14.47,8.36v-5.57a2,2,0,0,1-1.3-.55l-.06-.05a2,2,0,0,1-.43-2.23,1,1,0,0,1,.07-.15L68,300.56,58,294.8Zm-56.21.31L-11.83,303a.25.25,0,0,1,0,.12.38.38,0,0,1-.12.29.37.37,0,0,1-.19.11v6.89l13.92-8Zm78-36.67L58,271v23.54L70.85,302a2,2,0,0,1,1.65-.94h.08a2,2,0,0,1,1.71.95l5.21-3,12.24-7.07a2.21,2.21,0,0,1-.26-1v-.07a2.3,2.3,0,0,1,2.2-2.33V268.05a1.68,1.68,0,0,1-1.4-2.43l-12.44-7.18Zm32.8-2.85-12.56,7.25,13.19,7.61v30.62a2.65,2.65,0,0,1,2.73-.43,2.73,2.73,0,0,1,1.23,1l.47-.27,15.74-9.09a3.05,3.05,0,0,1-.37-1.38v-.08a3.1,3.1,0,0,1,3-3.1V267.39a1,1,0,0,1-.92-1,1.06,1.06,0,0,1,.08-.4l-18-10.36a2.75,2.75,0,0,1-4.65,0ZM99.12,263.4l-3.84,2.23a1.64,1.64,0,0,1,.17.74,1.66,1.66,0,0,1-1.58,1.68v20.47A2.32,2.32,0,0,1,96,291.74l-.09.21,16.44,9.49V271L99.12,263.4Zm-69.83-7.7-7.57,4.36-11.39,6.58a1.37,1.37,0,0,1-1.26,1.11v21.79a1.31,1.31,0,0,1,.85.38,1.28,1.28,0,0,1,.38.94,1.22,1.22,0,0,1-.13.57l17.13,9.89a3.37,3.37,0,0,1,5.75,0L37.1,299l12-6.9a2.66,2.66,0,0,1-.31-1.14v-.09a2.64,2.64,0,0,1,1.62-2.44,2.72,2.72,0,0,1,.92-.2V268a1.6,1.6,0,0,1-1.45-1.15l-11.71-6.76-7.36-4.24a1.77,1.77,0,0,1-1.2,0l-.07,0-.21-.1Zm-20.76,12L2.76,271v23.32l5-2.9a1.42,1.42,0,0,1-.13-.51v-.06A1.34,1.34,0,0,1,9,289.53H8.93V267.76a1.67,1.67,0,0,1-.4-.08Zm43.23.27a1.45,1.45,0,0,1-.29,0v20.23a2.62,2.62,0,0,1,2.34,3.63,2.56,2.56,0,0,1-.11.24L57.05,294V271Zm22.86-12.52a2.43,2.43,0,0,1-3.77.42,2.65,2.65,0,0,1-.33-.42l-16.9,9.76-.8.46a1.7,1.7,0,0,1,.17.67v.06a1.64,1.64,0,0,1-.32,1l4.88,2.81,21.3-12.3ZM2.26,207.5l-27.13,15.67V254.5L2.27,270.17,7.75,267a1.4,1.4,0,0,1-.14-.56v-.06a1.36,1.36,0,0,1,.14-.6l-19.07-11a1.11,1.11,0,0,1-.9.47,1.1,1.1,0,0,1-1.1-1.1,1.1,1.1,0,0,1,1-1.09V230.18a.52.52,0,0,1-.43-.51.53.53,0,0,1,.51-.53.53.53,0,0,1,.4.19L7.07,218.42a2.08,2.08,0,0,1-.25-1A2.16,2.16,0,0,1,9,215.27H8.93v-3.92Zm132.19,11-17.63,10.19a2,2,0,0,1,.26,1,2.11,2.11,0,0,1-2,2.1V251.4a2.74,2.74,0,0,1,2.3,4l18,10.36a1,1,0,0,1,1.66,0l18.07-10.43a2.55,2.55,0,0,1-.31-1.23,2.63,2.63,0,0,1,2.52-2.61V232.05a2.38,2.38,0,0,1-2.3-2.38,2.31,2.31,0,0,1,.28-1.11l-17.36-10a1.93,1.93,0,0,1-.29.35,2,2,0,0,1-1.44.6,2,2,0,0,1-1.72-.95ZM31.68,255.12l-.06.09.4.24L49.9,265.76a1,1,0,0,1,0-.1ZM7.16,218.58l-18.88,10.91a.57.57,0,0,1,0,.18.52.52,0,0,1-.43.51v22.87a1.1,1.1,0,0,1,1,1.09,1,1,0,0,1-.11.47l19.07,11A1.35,1.35,0,0,1,9,265a1.38,1.38,0,0,1,1.14.61l18.13-10.47.34-.19a1.89,1.89,0,0,1-.19-.75v-.07a1.79,1.79,0,0,1,1-1.59v-22a1.19,1.19,0,0,1-.35-.47,1.25,1.25,0,0,1,0-1L10.79,218.6a2.16,2.16,0,0,1-3.63,0Zm46.17.07a2.31,2.31,0,0,1-3.89,0L31.78,228.85l-.5.29a1.21,1.21,0,0,1,.12.47v.06a1.2,1.2,0,0,1-1,1.18v21.53a1.78,1.78,0,0,1,1.44,1.09,1.8,1.8,0,0,1,0,1.49L50,265.5a1.6,1.6,0,0,1,1.34-.73,1.62,1.62,0,0,1,1.35.73l17.7-10.22a2.42,2.42,0,0,1,2-3.56V230.67a1,1,0,0,1-.67-.31,1,1,0,0,1-.19-1.11v0Zm31.86,36.7-5.16,3,12.34,7.12a1.56,1.56,0,0,1,.16-.2l.06-.06a1.65,1.65,0,0,1,1.19-.49,1.66,1.66,0,0,1,1.41.77l3.75-2.17ZM94.68,218a1.83,1.83,0,0,1-.13.16,1.07,1.07,0,0,1-.77.32h-.09l-8,4.63v31.38l14.23,8.21,12.65-7.3a2.8,2.8,0,0,1-.32-1.22v-.08a2.74,2.74,0,0,1,2.65-2.74V231.82a2.12,2.12,0,0,1-2-2.1,2.07,2.07,0,0,1,.27-1ZM84.35,223l-10.89,6.28a.83.83,0,0,1,.07.41,1,1,0,0,1-.63.93,1,1,0,0,1-.23.06v21.06a2.42,2.42,0,0,1,2,3.55L79,257.76l5.67-3.27V223.18l-.36-.2ZM57.53,207.51,51.42,211v4.1a2.3,2.3,0,0,1,2.26,2.23v.07a2.28,2.28,0,0,1-.28,1.1L71.7,229.1a1,1,0,0,1,.88-.43.94.94,0,0,1,.69.29.83.83,0,0,1,.12.16l10.79-6.24L57.53,207.51Zm-6.24,3.6L30.38,223.17v5.28l.21.05.06,0a1.18,1.18,0,0,1,.54.44l18.15-10.48a2.37,2.37,0,0,1-.26-1.06,2.3,2.3,0,0,1,2.21-2.3v-4Zm-42.22.32v3.84a2.16,2.16,0,0,1,2.06,2.16,2.23,2.23,0,0,1-.24,1L29.16,229a1,1,0,0,1,.16-.19l.08-.08v-5.53L10.51,212.26l-1.44-.83Zm76.1-51.78L59.46,174.48l-1.45.83v31.35l27.15,15.63,7.63-4.4a1,1,0,0,1-.1-.45,1.08,1.08,0,0,1,1.08-1.09,1.1,1.1,0,0,1,.89.45l17.64-10.18v-31.3L85.17,159.65Zm-52.69,22.5a2.71,2.71,0,0,1-4.21.48,2.51,2.51,0,0,1-.38-.48L11,191.92a2.16,2.16,0,0,1,.26,1A2.25,2.25,0,0,1,9.84,195a2.32,2.32,0,0,1-.77.17v15.1l20.84,12L51.29,210v-15.6a1.36,1.36,0,0,1-.39-.08l-.06,0a1.41,1.41,0,0,1-.71-1.91Zm-2.57-22.51L2.76,175.31v31.35l6.17,3.55v-15a2.21,2.21,0,0,1-1.47-.59l-.06-.06a2.24,2.24,0,0,1,3.16-3.18,1.81,1.81,0,0,1,.32.41L27.81,182a2.61,2.61,0,0,1-.33-1.29,2.69,2.69,0,0,1,1.66-2.51,2.71,2.71,0,0,1,3.55,3.53c0,.1-.09.19-.13.28l17.65,10.19a1.39,1.39,0,0,1,2.46.22,1.41,1.41,0,0,1-.31,1.52,1.39,1.39,0,0,1-.94.4v15.53l5.64-3.26V175.31L32.52,161.15l-2.61-1.51Zm-42.13,20.88a.2.2,0,0,1,.2.2.2.2,0,0,1-.2.2.2.2,0,0,1-.2-.2A.2.2,0,0,1-12.22,180.52ZM57.56,111.8,30.38,127.47v31.34l27.18,15.68,27.15-15.68V127.47L57.56,111.8Zm-58.73,2-23.7,13.69V158.8l8.31,4.81L2.27,174.48,29.4,158.81V127.47l-17-9.81-1.67,1a1.92,1.92,0,0,1,.2.78v.08a1.91,1.91,0,0,1-3.81,0,1.88,1.88,0,0,1,.18-.85l-8.47-4.89Zm-11,40.68a1.78,1.78,0,0,1,1.78,1.79A1.78,1.78,0,0,1-12.22,158,1.78,1.78,0,0,1-14,156.25,1.79,1.79,0,0,1-12.22,154.46Zm21.2-12A1.54,1.54,0,1,1,7.44,144,1.54,1.54,0,0,1,9,142.47ZM2.26,111.8-1,113.67l8.38,4.84a1.92,1.92,0,0,1,1.52-.92H9a1.88,1.88,0,0,1,1.38.54,2.3,2.3,0,0,1,.28.34l1.58-.92-10-5.75ZM11.4,72.09a2.86,2.86,0,0,1-4.84,0l-17.9,10.33a1,1,0,0,1,.07.38.94.94,0,0,1-.85.94v22.33A1.23,1.23,0,0,1-11,107.3a1.18,1.18,0,0,1-.12.53l9.21,5.31,4.16-2.4L13.15,117l14.91-8.61a2.4,2.4,0,0,1-.28-1v-.07a2.39,2.39,0,0,1,2.31-2.41V84.34a1.52,1.52,0,0,1-1.43-1.52,1.45,1.45,0,0,1,.16-.68Z" transform="translate(38.75)"/><path class="cls-4" d="M-1.73,30.11,32.61,49.92v39l33.72,19.45v39.61L43.74,161l22.49,13a2.54,2.54,0,0,1,2.08-1.17h.08A2.56,2.56,0,0,1,70.57,174l21.5-12.41a2.44,2.44,0,0,1-.29-1.17,2.49,2.49,0,0,1,5,0,2.43,2.43,0,0,1-.28,1.14l21.2,12.25a2.91,2.91,0,1,1,2.57,4.45V202a3.19,3.19,0,1,1-2.82,4.85L95.38,219.62a1.28,1.28,0,0,1,.12.52,1.23,1.23,0,0,1-1.07,1.22v24.88a3.82,3.82,0,0,1,3.21,5.6l20.42,11.79a2.47,2.47,0,1,1,2.19,3.8v3.74l12.92-7.45,33.72,19.46,33.73-19.46,34.31,19.8v35h-1.18V284.2l-33.13-19.13L167.48,284.2v34.27H166.3V284.2l-33.13-19.13-12.92,7.46v19.62a2.69,2.69,0,0,1,2.58,2.61v.08a2.66,2.66,0,0,1-.31,1.25l21.84,12.59a2,2,0,0,1,1.66-.89,2,2,0,0,1,.12,4v6.72h-.23v-6.72a2,2,0,0,1-1.87-2,1.91,1.91,0,0,1,.21-.89l-21.84-12.6a2.69,2.69,0,0,1-4.54,0L100,306.58v11.89H98.85V307.26l-2.32,1.34a2.52,2.52,0,0,1,.28,1.1v.07a2.55,2.55,0,0,1-2.43,2.55v6.15h-.23v-6.15a2.56,2.56,0,0,1-1.68-.75,2.54,2.54,0,0,1-.47-3L69.62,295.69a1.49,1.49,0,0,1-2.47,0L45.47,308.2a3.21,3.21,0,0,1,.4,1.57,3.36,3.36,0,0,1-2.07,3.1,3.47,3.47,0,0,1-1.17.26v5.34H42.4v-5.34a3.36,3.36,0,0,1-3-4.64c0-.1.09-.19.14-.29l-7-4v14.29H31.41v-15l-2.81-1.63-9-5.18a3.52,3.52,0,0,1-2.9,1.66h-.09a3.56,3.56,0,0,1-2.49-1,3.81,3.81,0,0,1-.5-.64L-7.63,309a1.78,1.78,0,0,1,0,1.48,1.77,1.77,0,0,1-1.54,1.09v6.92h-.22v-6.92A1.78,1.78,0,0,1-11,309.77a1.81,1.81,0,0,1,.17-.77L-34,295.61a1.3,1.3,0,0,1-.84.54v22.32H-36V295.8a1.63,1.63,0,0,1-.17-.2l-2.54,1.46v-.25l2.43-1.4a1.4,1.4,0,0,1-.13-.57,1.33,1.33,0,0,1,.41-1V284.2l-2.71-1.56v-1.36l3.3,1.9.22-.13v-14A4.12,4.12,0,0,1-38.7,267l0-.09v-3.81l0-.05,0,0v-.25l.14.08a4.09,4.09,0,0,1,3.5-2h0a4.12,4.12,0,0,1,3.5,1.95l19.54-11.28a3.26,3.26,0,0,1-.37-1.5,3.2,3.2,0,0,1,2-3,3,3,0,0,1,1.09-.24v-24.7a2,2,0,0,1-1.75-1.39l-23.24-13.41a2.16,2.16,0,0,1-1.62-.05,2.1,2.1,0,0,1-.26-.13l-2.51,1.44v-1.39l1.68-1a2.12,2.12,0,0,1-.22-1,2.17,2.17,0,0,1,1.23-1.9V176.49a1.49,1.49,0,0,1-.54-1.15,1.37,1.37,0,0,1,.15-.64l-2.3-1.32v-.27l2.41,1.39a1.67,1.67,0,0,1,.28-.31v-6.8l-2.69-1.56v-1.35l3.29,1.9,23.29-13.44,2.82-1.63V132.22a1.71,1.71,0,0,1-1.59-1.63v-.07a1.59,1.59,0,0,1,.18-.74l-21.55-12.45a3.31,3.31,0,0,1-2.8,1.55,3.3,3.3,0,0,1-2.34-1,3.23,3.23,0,0,1-.46-.59l-.84.48v-.25l.73-.42a3.22,3.22,0,0,1-.39-1.56,3.3,3.3,0,0,1,3.3-3.3,3.3,3.3,0,0,1,3.3,3.3,3.31,3.31,0,0,1-.39,1.56l21.55,12.44a1.71,1.71,0,0,1,.21-.26,1.73,1.73,0,0,1,1.2-.49,1.7,1.7,0,0,1,1.7,1.69,1.71,1.71,0,0,1-1.59,1.7v19l6.79-3.92V109l-15.41-8.9-17.7-10.21-3.3,1.89V90.41l2.69-1.55V50.58L-38.75,49V47.67l3.29,1.9Zm0,235-15.89,9.17-17.23,10v9.32a1.33,1.33,0,0,1,1.08,1.25v.06a1.42,1.42,0,0,1-.11.55l23.18,13.39a1.79,1.79,0,0,1,.8-.66,1.77,1.77,0,0,1,1.94.4,2.62,2.62,0,0,1,.22.25l21.28-12.29a3.44,3.44,0,0,1-.41-1.64,3.53,3.53,0,0,1,2.17-3.26,3.47,3.47,0,0,1,1.22-.26V275.61L-1.74,265.08Zm71.93,2.57a3.25,3.25,0,0,1-1.65.55v25.15a1.5,1.5,0,0,1,1.34,1.49,1.6,1.6,0,0,1-.13.62l22.38,12.93a2.53,2.53,0,0,1,2.14-1.16,2.56,2.56,0,0,1,2.14,1.16L98.85,307V284.2Zm-5-2.25L32.59,284.2v19.69l7.08,4.1a3.36,3.36,0,0,1,2.75-1.57h.09A3.35,3.35,0,0,1,45.35,308L67,295.47a1.46,1.46,0,0,1-.14-.63,1.49,1.49,0,0,1,1.37-1.49V268.2a3.24,3.24,0,0,1-2.87-2,3.28,3.28,0,0,1-.22-.8ZM120,272.66,100,284.2v22.1l17.71-10.23a2.79,2.79,0,0,1-.29-1.15v-.08a2.7,2.7,0,0,1,2.57-2.69ZM16.75,275.75v15.57a3.51,3.51,0,0,1,3.13,4.86c0,.1-.09.2-.14.3l11.66,6.74v-19l-14.66-8.46ZM97.5,252.08a3.82,3.82,0,0,1-6.47,0l-19.76,11.4a3.28,3.28,0,0,1,.36,1.49,3.2,3.2,0,0,1-.57,1.83l28.38,16.38L120,271.31v-3.88a2.46,2.46,0,0,1-2.35-2.39V265a2.38,2.38,0,0,1,.26-1.1Zm-57.37-.5L18.86,263.85a2.5,2.5,0,0,1-1.28,3.42,2.43,2.43,0,0,1-.83.18v6.93L32,283.18l33.13-19.12v-.79L44.9,251.58a2.89,2.89,0,0,1-2.31,1.28h-.08a2.86,2.86,0,0,1-2.38-1.28Zm-52.06.18L-31.47,263A4.16,4.16,0,0,1-31,264.3a4.12,4.12,0,0,1-2.75,4.57,4.21,4.21,0,0,1-1.2.21v13.84l32.65-18.85v-9.88l-4.2-2.42a3.21,3.21,0,0,1-2.61,1.46h-.09a3.22,3.22,0,0,1-2.27-.94A3.06,3.06,0,0,1-11.93,251.76Zm10.79,3.12v9.17l17.65,10.19v-6.79a2.5,2.5,0,0,1-1.58-.67l-.06-.06a2.48,2.48,0,0,1-.53-2.71l.06-.15-15.54-9Zm26.57-44.41L-1.14,225.81v28.73l15.69,9.07a2.47,2.47,0,0,1,2-1.13h.08a2.48,2.48,0,0,1,2.08,1.13L40,251.33a2.86,2.86,0,0,1,2.41-4.19V222.2a2,2,0,0,1-1.72-2.94l-15.24-8.79ZM65.56,207l-15.3,8.83,16.07,9.27v37.33a3.26,3.26,0,0,1,4.8.78l19.75-11.41a3.89,3.89,0,0,1-.43-1.77,3.82,3.82,0,0,1,3.68-3.81V221.37A1.23,1.23,0,0,1,93,220.15a1.27,1.27,0,0,1,.09-.47L71.21,207a3.35,3.35,0,0,1-5.65,0Zm-16.48,9.51-4.72,2.73a2.06,2.06,0,0,1-1.73,2.94v24.94A2.85,2.85,0,0,1,45.37,250a2.73,2.73,0,0,1-.33,1.33l17.4,10,2.69,1.56V225.8l-16-9.27Zm-57.87,5.54a1.86,1.86,0,0,1-.33,0v24.7a3.22,3.22,0,0,1,2.15.93,3.22,3.22,0,0,1,.7,3.51,2.1,2.1,0,0,1-.13.26l4.05,2.34V225.79Zm27.91-15.25a3,3,0,0,1-5,0L-7.47,219.3a2,2,0,0,1,.19.85,2,2,0,0,1-.4,1.2l5.94,3.43,26-15Zm77.22-45a2.48,2.48,0,0,1-4.15,0l-21.5,12.42a2.63,2.63,0,0,1,.27,1.15,2.57,2.57,0,0,1-2.42,2.57v24a3.35,3.35,0,0,1,3.2,3.35,3.42,3.42,0,0,1-.38,1.56l9.69,5.59,12.22,7.06.08-.09,0-.05a1.22,1.22,0,0,1,.88-.37,1.23,1.23,0,0,1,1,.51l22.06-12.73a3.09,3.09,0,0,1-.37-1.48A3.18,3.18,0,0,1,120,202V178.24a2.91,2.91,0,0,1-2.79-2.9,2.77,2.77,0,0,1,.32-1.32Zm-129.6,44.64-.08.12L-11,219.4a.61.61,0,0,1,.05-.12l-21-12.14Zm26.37-44.48a2.82,2.82,0,0,1-2.35,1.27,2.82,2.82,0,0,1-2-.82,3.09,3.09,0,0,1-.36-.45l-22.17,12.8a1.37,1.37,0,0,1,.14.61,1.49,1.49,0,0,1-1.24,1.47v26.3a2.17,2.17,0,0,1,1.76,1.34,2.19,2.19,0,0,1,0,1.74l22.27,12.87a1.94,1.94,0,0,1,1.63-.87,1.94,1.94,0,0,1,1.63.87L14,206.57a3,3,0,0,1,2.51-4.3V176.55a1.22,1.22,0,0,1-1.09-1.21,1.19,1.19,0,0,1,.09-.47ZM32,206.68l-6.28,3.62L40.81,219a2,2,0,0,1,1.64-.92h.06a2.07,2.07,0,0,1,1.71.92l4.58-2.65L32,206.68Zm11.59-45.49a1.35,1.35,0,0,1-1.08.54H42.4l-9.79,5.65v38.29l17.37,10,15.43-8.92A3.31,3.31,0,0,1,65,205.3v-.09a3.35,3.35,0,0,1,3.23-3.35v-24a2.58,2.58,0,0,1-2.18-3.72Zm-12.54,6-13.28,7.68a1.19,1.19,0,0,1,.09.47,1.22,1.22,0,0,1-1.09,1.21v25.72a2.94,2.94,0,0,1,2.82,2.94,3,3,0,0,1-.33,1.36l5.28,3.05,6.87-4V167.4ZM-1.73,148.27l-7.4,4.27v5.06a2.81,2.81,0,0,1,2.69,2.72v.08a2.72,2.72,0,0,1-.32,1.3l22.4,12.94a1.22,1.22,0,0,1,2,0l13.18-7.61-5.25-3L-1.73,148.27Zm-7.62,4.4L-34.86,167.4v6.47a1.47,1.47,0,0,1,1,.63l22.17-12.79A2.7,2.7,0,0,1-12,160.4a2.8,2.8,0,0,1,2.69-2.8v-4.93ZM32,89.87,4.94,105.48-1.14,109v38.26l3.33,1.93L32,166.38,41.32,161a1.39,1.39,0,0,1-.14-.54v-.06a1.33,1.33,0,0,1,2.45-.73l21.5-12.42V109L32,89.87ZM-1.73,31.47-34.86,50.59V88.85L-1.73,108,25.12,92.48l6.29-3.63V50.59ZM-35,0V23A2.93,2.93,0,0,1-32.18,26a2.93,2.93,0,0,1-2.93,2.93,2.93,2.93,0,0,1-2.48-1.37l-1.16.67v-.26l1-.6A2.87,2.87,0,0,1-38,26,2.93,2.93,0,0,1-35.23,23V0Z" transform="translate(38.75)"/></g></g></g></g></svg>