<svg xmlns="http://www.w3.org/2000/svg"
    xmlns:xlink="http://www.w3.org/1999/xlink" viewBox="0 0 95.49 41">
    <defs>
        <style>.cls-1{fill:#fff;fill-opacity:0.8;}.cls-1,.cls-2{stroke:#6b717c;stroke-miterlimit:10;}.cls-2{fill:none;stroke-linecap:round;}</style>
        <symbol id="New_Symbol_12" data-name="New Symbol 12" viewBox="0 0 95.49 41">
            <rect class="cls-1" x="0.5" y="0.5" width="94.49" height="40" rx="20"/>
            <path class="cls-2" d="M27.49,20.37a3.33,3.33,0,0,1-2.81,1.56"/>
            <path class="cls-2" d="M29.75,19.52a3.52,3.52,0,0,1-1.11,3.13c-2.3,2.31-8.9,1-8.9,1a18,18,0,0,0,3.59-6.27c.44-1.21,1.8-1.47,3.12-1.16L30,19.74l3.21-3.21,8.15-9.09a1.93,1.93,0,0,0,.22-2.58A1.93,1.93,0,0,0,39,5.08l-9.08,8.15"/>
            <line class="cls-2" x1="28.31" y1="14.85" x2="31.56" y2="18.09"/>
            <line class="cls-2" x1="29.93" y1="13.23" x2="33.22" y2="16.53"/>
            <polyline class="cls-2" points="35.49 18.5 35.49 31.5 16.49 31.5 16.49 9.5 28.49 9.5"/>
        </symbol>
    </defs>
    <g id="Layer_2" data-name="Layer 2">
        <g id="Desktop">
            <g id="page_04">
                <use width="95.49" height="41" xlink:href="#New_Symbol_12"/>
            </g>
        </g>
    </g>
</svg>