<svg xmlns="http://www.w3.org/2000/svg" viewBox="0 0 43.81 39.55"><defs><style>.cls-1{fill:#fff;}</style></defs><g id="Layer_2" data-name="Layer 2"><g id="Layer_1-2" data-name="Layer 1"><path class="cls-1" d="M3.49,27.57a63.13,63.13,0,0,1,6.77-11.16,45.88,45.88,0,0,1,9.26-9.15A37,37,0,0,1,31.11,1.55,42,42,0,0,1,43.81,0,41.62,41.62,0,0,0,31.36,2.32,35.88,35.88,0,0,0,20.52,8.54a43.38,43.38,0,0,0-8.29,9.29,60.71,60.71,0,0,0-5.77,11h0a1.62,1.62,0,1,1-3-1.21A.42.42,0,0,1,3.49,27.57Z" transform="translate(0 0)"/><polygon class="cls-1" points="13.99 25.41 5.96 25.95 0 20.54 1.21 39.55 13.99 25.41"/></g></g></svg>