<svg xmlns="http://www.w3.org/2000/svg" viewBox="0 0 16.47 58.08"><defs><style>.cls-1{fill:#fff;}</style></defs><g id="Layer_2" data-name="Layer 2"><g id="Layer_1-2" data-name="Layer 1"><path class="cls-1" d="M7.44,48a63.8,63.8,0,0,1-3.1-12.68,45.8,45.8,0,0,1,.08-13A37,37,0,0,1,8.57,10.06,42.22,42.22,0,0,1,16.47,0,41.32,41.32,0,0,0,9.3,10.43,35.71,35.71,0,0,0,6,22.5a43.94,43.94,0,0,0,.72,12.43,60.21,60.21,0,0,0,3.72,11.88v0a1.62,1.62,0,0,1-3,1.26Z"/><polygon class="cls-1" points="13.34 39.05 8.04 45.1 0 45.49 14.3 58.08 13.34 39.05"/></g></g></svg>