<svg xmlns="http://www.w3.org/2000/svg" viewBox="0 0 26.5 28.04"><defs><style>.cls-1{fill:none;stroke:#6b717c;stroke-linecap:round;stroke-miterlimit:10;}</style></defs><g id="Layer_2" data-name="Layer 2"><g id="Desktop"><g id="page_04"><path class="cls-1" d="M11.5,16.41A3.31,3.31,0,0,1,8.69,18"/><path class="cls-1" d="M13.76,15.56a3.53,3.53,0,0,1-1.11,3.13c-2.3,2.31-8.9.95-8.9.95a17.9,17.9,0,0,0,3.59-6.27c.44-1.21,1.8-1.47,3.12-1.15L14,15.78l3.21-3.22,8.15-9.08A1.93,1.93,0,0,0,25.6.9,1.93,1.93,0,0,0,23,1.12L13.94,9.27"/><line class="cls-1" x1="12.32" y1="10.88" x2="15.57" y2="14.13"/><line class="cls-1" x1="13.94" y1="9.27" x2="17.23" y2="12.56"/><polyline class="cls-1" points="19.5 14.54 19.5 27.54 0.5 27.54 0.5 5.54 12.5 5.54"/></g></g></g></svg>