<svg xmlns="http://www.w3.org/2000/svg"
    xmlns:xlink="http://www.w3.org/1999/xlink" width="233.41" height="55.88" viewBox="0 0 233.41 55.88">
    <defs>
        <style>.cls-1{fill:#fff;}.cls-1,.cls-2,.cls-4,.cls-6,.cls-8{fill-rule:evenodd;}.cls-2{fill:#020302;}.cls-3{mask:url(#mask);}.cls-4{fill:#6d6e71;}.cls-5{mask:url(#mask-2);}.cls-6{fill:url(#radial-gradient);}.cls-7{mask:url(#mask-3);}.cls-8{fill:#231f20;}</style>
        <mask id="mask" x="210.89" y="0" width="22.52" height="26.49" maskUnits="userSpaceOnUse">
            <g id="lcnc67muhb">
                <path id="_4j19ocmq2a" data-name="4j19ocmq2a" class="cls-1" d="M210.89,0h22.52V26.49H210.89Z"/>
            </g>
        </mask>
        <mask id="mask-2" x="74.99" y="0.8" width="27.7" height="27.69" maskUnits="userSpaceOnUse">
            <g id="_5wyuyxwgte" data-name="5wyuyxwgte">
                <path id="xvh6st7rac" class="cls-1" d="M79,4.84A13.39,13.39,0,0,0,75,14.64,13.33,13.33,0,0,0,79,24.43a13.83,13.83,0,0,0,19.58,0,13.3,13.3,0,0,0,4.06-9.79,13.36,13.36,0,0,0-4.06-9.8A13.88,13.88,0,0,0,79,4.84"/>
            </g>
        </mask>
        <radialGradient id="radial-gradient" cx="-77.98" cy="413.77" r="0.77" gradientTransform="matrix(24.98, 0, 0, -24.98, 2040.86, 10343.94)" gradientUnits="userSpaceOnUse">
            <stop offset="0" stop-color="#dd5b2e"/>
            <stop offset="1" stop-color="#fefefe"/>
        </radialGradient>
        <mask id="mask-3" x="0" y="44.09" width="233.41" height="11.8" maskUnits="userSpaceOnUse">
            <g id="v0w3hqd5lg">
                <path id="glhe4dcptf" class="cls-1" d="M0,44.09H233.41V55.88H0Z"/>
            </g>
        </mask>
    </defs>
    <g id="Layer_2" data-name="Layer 2">
        <g id="page_01" data-name="page 01">
            <path class="cls-2" d="M13.58,6.89c-.67-2.6-1.77-5.16-5.47-5.16C5,1.73,4,4,4,6c0,2.72,1.73,4.1,5,5.79,4.72,2.44,6.77,4.25,6.77,8,0,4.14-3.59,7.29-8.66,7.29a16.45,16.45,0,0,1-6-1.3A54,54,0,0,1,0,19.88l1.22-.31C2,22.2,3.74,25.63,7.83,25.63A4.33,4.33,0,0,0,12.4,21.1c0-3-1.61-4.25-5.08-6.14C3.19,12.72.87,10.83.87,7.17.87,3.66,3.78.35,9,.35a25.59,25.59,0,0,1,5.19.75c.16,1.42.32,3,.63,5.55ZM43.5,20.19a49.83,49.83,0,0,1-2.17,5.95,35.63,35.63,0,0,1-7.2.94c-9.41,0-14.21-6.25-14.21-13.14,0-8,6.1-13.59,14.92-13.59a39.88,39.88,0,0,1,7.44.91c.15,1.77.43,4.13.75,6.1l-1.23.28C41,5,40.07,3.39,38.06,2.56a10.77,10.77,0,0,0-4.13-.75c-6.49,0-9.92,4.8-9.92,11.3,0,7.6,3.94,12.48,10.31,12.48,4,0,6-1.85,8-5.79l1.18.4ZM74.67,2c-3.27.31-3.58.51-3.58,3.82V21.61c0,3.31.35,3.43,3.58,3.78v1.1H64.12v-1.1c3.27-.39,3.58-.47,3.58-3.78V13.74H54.24v7.87c0,3.27.31,3.39,3.54,3.78v1.1H47.27v-1.1c3.19-.35,3.55-.47,3.55-3.78V5.83c0-3.31-.36-3.51-3.55-3.82V.91H57.78V2c-3.15.27-3.54.55-3.54,3.82v6.26H67.7V5.83c0-3.27-.43-3.55-3.58-3.82V.91H74.67ZM119,.35a12.66,12.66,0,0,1,12.75,13c0,8.46-5.75,13.73-13,13.73a12.81,12.81,0,0,1-13.07-13.14c0-7,5-13.59,13.31-13.59m-.79,1.46c-4.41,0-8.42,3.7-8.42,11.06s4,12.72,9.6,12.72c4.76,0,8.35-3.54,8.35-11.14,0-8.27-4.37-12.64-9.53-12.64M155.36,20c-.24,1.22-1.42,5.31-1.81,6.53H135.24v-1.1c3.58-.35,3.9-.55,3.9-3.9V5.87c0-3.35-.39-3.55-3.54-3.86V.91h10.55V2c-3.15.31-3.58.47-3.58,3.86v16c0,2.4.31,2.95,2.55,3l3.11,0c2,0,2.6-.24,3.51-1.22a13.34,13.34,0,0,0,2.4-4.06Zm29.8-18c-2.52.27-3.35.67-3.47,2.48,0,1.26-.12,2.91-.12,6.57V26.85h-1.49L163.23,6.26V16.1c0,3.54.12,5.32.2,6.46.07,2,1.06,2.6,3.9,2.83v1.1h-9.57v-1.1c2.44-.2,3.38-.79,3.54-2.72.12-1.25.2-3,.2-6.61V6a3.4,3.4,0,0,0-.79-2.59c-.75-1-1.57-1.23-3.5-1.42V.91h5.9l16.69,19.8V11.06c0-3.66-.07-5.35-.19-6.53-.12-1.77-1-2.33-4.18-2.52V.91h9.73V2Zm23.57,18.23c-.23,1-1.3,5.07-1.69,6.25H187.91v-1.1c3.66-.27,3.93-.63,3.93-3.86V6c0-3.5-.43-3.7-3.38-4V.91h12c3.7,0,5.24,0,5.71-.08,0,1,.2,3.93.36,6l-1.18.2a13.14,13.14,0,0,0-1.19-3c-.63-1.29-1.53-1.57-3.89-1.57h-3.74c-1.22,0-1.3.12-1.3,1.26v8.7h4.37c3,0,3.15-.59,3.62-3.27h1.22v8.11h-1.22c-.51-2.83-.83-3.23-3.66-3.23h-4.33v7.84c0,2.75.86,3,2.83,3h3.66c2.41,0,2.8-.35,3.67-1.38a17,17,0,0,0,2.12-3.62l1.18.32Z"/>
            <g class="cls-3">
                <path class="cls-2" d="M232.23,7.09A14.92,14.92,0,0,0,231,3.82c-.63-1.07-1-1.34-3.19-1.34h-3.93V21.65c0,3.07.31,3.5,4.05,3.74v1.1H216.44v-1.1c3.67-.23,4-.63,4-3.74V2.48h-3.58c-2.17,0-2.8.24-3.46,1.42a17,17,0,0,0-1.3,3.19h-1.19c.24-2.41.48-4.89.6-7.09h.9c.59.94,1,.91,2.13.91h15.59a2,2,0,0,0,2-.91h.95c0,1.85.16,4.68.35,7l-1.18.12Z"/>
            </g>
            <path class="cls-4" d="M89.1,32.32a32.83,32.83,0,0,1,8.5.93c2.17.62,3.42,1.35,3.42,2.28s-1.25,1.66-3.42,2.18a33.15,33.15,0,0,1-8.61.93,34.44,34.44,0,0,1-8.7-.93c-2.28-.62-3.63-1.35-3.63-2.28s1.45-1.76,3.73-2.28a35.53,35.53,0,0,1,8.71-.83"/>
            <g class="cls-5">
                <path class="cls-6" d="M79,4.84A13.39,13.39,0,0,0,75,14.64,13.33,13.33,0,0,0,79,24.43a13.83,13.83,0,0,0,19.58,0,13.3,13.3,0,0,0,4.06-9.79,13.36,13.36,0,0,0-4.06-9.8A13.88,13.88,0,0,0,79,4.84"/>
            </g>
            <g class="cls-7">
                <path class="cls-8" d="M0,44.22V55.77H5.56V54.54h-4V44.22Zm19,0H12.8V55.77H19V54.52H14.3v-4h4.21V49.3H14.3V45.44H19V44.2ZM34.69,55.77h1.59L32.12,44.28H30.38L26.2,55.77h1.59l.93-2.57h5l.93,2.57ZM33.33,52H29.15l2.09-5.83L33.33,52Zm16.58-4.36c0,1.3-.74,2.22-2.45,2.22H45.24V45.46h2.22C49.18,45.46,49.91,46.31,49.91,47.61Zm-6.18-3.39V55.77h1.51V51h1.82l2.75,4.73h1.81l-2.9-4.84a3.26,3.26,0,0,0,2.75-3.32c0-1.88-1.29-3.39-4-3.39ZM67,44.2v9.18L61,44.2H59.44V55.77H61v-9.2L67,55.77h1.51V44.2Zm9.71,11.57h1.51V44.22H76.72ZM94,44.2v9.18L87.94,44.2H86.43V55.77h1.51v-9.2L94,55.77h1.5V44.2ZM109,44.09a5.89,5.89,0,0,0,0,11.78,5.61,5.61,0,0,0,5.67-5.17V49.54h-6.21v1.22H113A3.9,3.9,0,0,1,109,54.51,4.2,4.2,0,0,1,104.69,50,4.2,4.2,0,0,1,109,45.44a3.69,3.69,0,0,1,3.52,2.12h1.8A5.45,5.45,0,0,0,109,44.09ZM132.3,55.77h1.51V50.56h4.07V49.34h-4.07v-3.9h5V44.22H132.3Zm25-5.79a5.8,5.8,0,1,0-5.8,5.9A5.68,5.68,0,0,0,157.32,50Zm-10.06,0c0-2.83,1.83-4.59,4.26-4.59s4.26,1.76,4.26,4.59-1.82,4.59-4.26,4.59S147.26,52.8,147.26,50Zm23.87-2.37c0,1.3-.75,2.23-2.46,2.23h-2.22V45.46h2.22c1.73,0,2.45.85,2.45,2.15Zm-6.19-3.39V55.77h1.51V51.05h1.82L171,55.77h1.81l-2.9-4.84a3.25,3.25,0,0,0,2.75-3.31c0-1.89-1.29-3.4-4-3.4Zm25.77,0V55.77h5.55V54.54h-4V44.22ZM203.5,55.77H205V44.22H203.5V55.77Zm9.71,0h1.51V50.56h4.08V49.34h-4.08v-3.9h5V44.22h-6.53V55.77Zm20.2-11.57H227.2V55.77h6.21V54.52h-4.7v-4h4.2V49.3h-4.2V45.44h4.7Z"/>
            </g>
        </g>
    </g>
</svg>