<svg xmlns="http://www.w3.org/2000/svg" xmlns:xlink="http://www.w3.org/1999/xlink" width="43.99" height="224.18" viewBox="0 0 43.99 224.18"><defs><style>.cls-1,.cls-2,.cls-3,.cls-4{fill:none;stroke-linecap:round;stroke-linejoin:round;stroke-width:3.03px;}.cls-1{stroke:url(#linear-gradient);}.cls-2{stroke:url(#linear-gradient-2);}.cls-3{stroke:url(#linear-gradient-3);}.cls-4{stroke:url(#linear-gradient-4);}</style><linearGradient id="linear-gradient" x1="20.56" y1="424.97" x2="43.93" y2="424.97" gradientTransform="matrix(1, 0, 0, -1, 0, 636.1)" gradientUnits="userSpaceOnUse"><stop offset="0.09" stop-color="#424344"/><stop offset="0.19" stop-color="#9b9c9c"/><stop offset="0.53" stop-color="#bdbebf"/><stop offset="0.83" stop-color="#424344"/></linearGradient><linearGradient id="linear-gradient-2" x1="19.58" y1="217.78" x2="23.53" y2="217.78" gradientUnits="userSpaceOnUse"><stop offset="0.05" stop-color="#424344"/><stop offset="0.59" stop-color="#bdbebf"/><stop offset="0.92" stop-color="#58595b"/></linearGradient><linearGradient id="linear-gradient-3" x1="6.23" y1="18.04" x2="43.93" y2="18.04" gradientUnits="userSpaceOnUse"><stop offset="0.05" stop-color="#424344"/><stop offset="0.19" stop-color="#9b9c9c"/><stop offset="0.37" stop-color="#424344"/><stop offset="0.59" stop-color="#bdbebf"/><stop offset="0.92" stop-color="#58595b"/></linearGradient><linearGradient id="linear-gradient-4" y1="117.26" x2="43.99" y2="117.26" gradientUnits="userSpaceOnUse"><stop offset="0.05" stop-color="#424344"/><stop offset="0.19" stop-color="#9b9c9c"/><stop offset="0.37" stop-color="#424344"/><stop offset="0.74" stop-color="#c9cacb"/><stop offset="0.96" stop-color="#58595b"/></linearGradient></defs><g id="Layer_2" data-name="Layer 2"><g id="Layer_1-2" data-name="Layer 1"><path class="cls-1" d="M41.82,199.68c2.4,1.17-2.8,1.8-9.39,2.71-5.39.75-10.14,1.14-10.3,3.22,0,.24-.06.77-.06,1.14v15.83"/><path class="cls-2" d="M21.1,212.9s.16,5.83.16,7.95.76,1.79.76,1.79"/><path class="cls-3" d="M41.82,34.56c2.4-1.17-2.75-2.21-9.39-2.71-3.09-.24-10.06-1-10.07-1C12.7,29.53,7.74,24.23,7.74,16.16a14.64,14.64,0,1,1,26,9.25"/><path class="cls-4" d="M42.47,34.32c0,2.59-40.95,2.59-40.95,5.18s40.95,2.59,40.95,5.18S1.52,47.27,1.52,49.86,42.47,52.45,42.47,55,1.52,57.63,1.52,60.22s40.95,2.59,40.95,5.18S1.52,68,1.52,70.58s40.95,2.59,40.95,5.18S1.52,78.35,1.52,80.94s40.95,2.6,40.95,5.19S1.52,88.72,1.52,91.31s40.95,2.59,40.95,5.18S1.52,99.08,1.52,101.67s40.95,2.6,40.95,5.19S1.52,109.45,1.52,112s40.95,2.59,40.95,5.18-40.95,2.59-40.95,5.19,40.95,2.59,40.95,5.18-40.95,2.59-40.95,5.19,40.95,2.59,40.95,5.18-40.95,2.59-40.95,5.18,40.95,2.59,40.95,5.18S1.52,150.91,1.52,153.5s40.95,2.6,40.95,5.19-40.95,2.59-40.95,5.18,40.95,2.6,40.95,5.19-40.95,2.59-40.95,5.19,40.95,2.59,40.95,5.18S1.52,182,1.52,184.62s40.95,2.59,40.95,5.19S1.52,192.4,1.52,195s40.95,2.59,40.95,5.19"/></g></g></svg>