<svg id="Layer_1" data-name="Layer 1" xmlns="http://www.w3.org/2000/svg" xmlns:xlink="http://www.w3.org/1999/xlink" viewBox="0 0 1040 457.96"><defs><style>.cls-1{fill:none;}.cls-2{clip-path:url(#clip-path);}.cls-3{fill:#151515;opacity:0.27;isolation:isolate;}.cls-4{fill:#378fb5;}</style><clipPath id="clip-path"><path class="cls-1" d="M1040,0V438.11a1350.58,1350.58,0,0,0-241.83-28.05c-84.57-2.1-168.36,3.83-252.73,4h-4.56q-28.74,0-57.53-.9c-32.08-1-65.4-2.46-99-4.81-62-4.31-125.23-11.66-183.93-24.68q-17.67-3.9-34.76-8.52C117.07,362,69.57,347.3,23.84,329.27q-12-4.74-23.84-9.74V0Z"/></clipPath></defs><g id="Layer_2" data-name="Layer 2"><g id="Tab_landscape" data-name="Tab landscape"><g id="top"><path d="M1040,0V438.11a1350.58,1350.58,0,0,0-241.83-28.05c-84.57-2.1-168.36,3.83-252.73,4h-4.56q-28.74,0-57.53-.9c-32.08-1-65.4-2.46-99-4.81-62-4.31-125.23-11.66-183.93-24.68q-17.67-3.9-34.76-8.52C117.07,362,69.57,347.3,23.84,329.27q-12-4.74-23.84-9.74V0Z"/></g><g id="bottom"><g class="cls-2"><path class="cls-3" d="M1091.93,278.05V458H-51.93V268.42c3.16-.41,6.31-.87,9.43-1.37,4.9-.77,9.79-1.53,14.71-2.22a1040.78,1040.78,0,0,1,299.3,0c81.83,12,161.42,33.66,242.65,48.41,1.45.26,2.92.53,4.38.77q27.66,4.94,55.56,8.79c31.08,4.3,63.43,8.23,96.27,11.11,60.53,5.36,122.72,7.18,181.64,1.26q17.73-1.79,35-4.53c49.17-7.89,97.6-17.81,144.94-32.15q15.13-4.59,30.07-9.68T1091.93,278.05Z"/><path class="cls-3" d="M1091.93,293.56V458H-51.93V262.76q12.09.87,24.14,2.07c4.36.42,8.71.86,13.05,1.36,130,14.55,256.08,55.53,384.43,75.21,48.12,7.39,96.57,11.78,145.66,10.68,52.38-1.18,103.86-8.61,155-18.16,32.69-6.1,65.27-13.05,97.88-19.79,19-3.89,37.91-7.73,56.91-11.26,77.47-14.42,159-23.79,236.9-14.05Q1077.11,290.71,1091.93,293.56Z"/><path class="cls-3" d="M1091.93,399.72V458H-51.93V398.73c68.21,3.84,138.88-2.14,205.54-12.8C227.22,374.15,298,357,369.69,341.4c28.78-6.24,57.67-12.24,86.94-17.54,20.34-3.68,41-7,61.91-9.84,82.92-11.21,169-14.44,249.71.11,1.14.19,2.29.41,3.42.62,27.88,5.2,54.39,12.41,80.34,20.43,39.54,12.2,77.82,26.22,117.9,37.82A974.41,974.41,0,0,0,1091.93,399.72Z"/></g><path class="cls-4" d="M1040,351.27v87.84a1350.58,1350.58,0,0,0-241.83-28.05c-84.57-2.1-168.36,3.83-252.73,4h-4.56q-28.74,0-57.53-.9c-32.08-1-65.4-2.46-99-4.81-62-4.31-125.23-11.66-183.93-24.68q-17.67-3.9-34.76-8.52C117.07,363,69.57,348.3,23.84,330.27q-12-4.74-23.84-9.74,5.82,2.06,11.69,4C60.47,341,110.79,353.43,162.07,364q18,3.72,36.65,6.55C260.47,380,326.38,382.6,390.86,381.8c35-.43,69.52-1.83,102.76-3.66q29.82-1.63,59.53-4.29l4.71-.43c87.18-8,173.28-22.58,260.84-28A1264.41,1264.41,0,0,1,1040,351.27Z"/></g></g></g></svg>