<svg xmlns="http://www.w3.org/2000/svg" xmlns:xlink="http://www.w3.org/1999/xlink" width="48.54" height="73.79" viewBox="0 0 48.54 73.79"><defs><style>.cls-1{mask:url(#mask);filter:url(#luminosity-noclip-2);}.cls-2{mix-blend-mode:multiply;fill:url(#linear-gradient);}.cls-3{fill:url(#linear-gradient-2);}.cls-4{fill:url(#linear-gradient-3);}.cls-5{fill:url(#linear-gradient-4);}.cls-6{fill:url(#linear-gradient-5);}.cls-7{mask:url(#mask-2);}.cls-8{fill:url(#linear-gradient-6);}.cls-9{fill:url(#linear-gradient-7);}.cls-10{fill:url(#linear-gradient-8);}.cls-11{fill:url(#linear-gradient-9);}.cls-12{fill:url(#linear-gradient-10);}.cls-13{fill:url(#linear-gradient-11);}.cls-14{fill:url(#linear-gradient-12);}.cls-15{fill:url(#linear-gradient-13);}.cls-16{fill:url(#linear-gradient-14);}.cls-17{filter:url(#luminosity-noclip);}</style><filter id="luminosity-noclip" x="1.52" y="-8243.82" width="45.51" height="32766" filterUnits="userSpaceOnUse" color-interpolation-filters="sRGB"><feFlood flood-color="#fff" result="bg"/><feBlend in="SourceGraphic" in2="bg"/></filter><mask id="mask" x="1.52" y="-8243.82" width="45.51" height="32766" maskUnits="userSpaceOnUse"><g class="cls-17"/></mask><linearGradient id="linear-gradient" x1="24.27" y1="29.32" x2="24.27" y2="24.77" gradientUnits="userSpaceOnUse"><stop offset="0"/><stop offset="0.12" stop-color="#040404"/><stop offset="0.25" stop-color="#101010"/><stop offset="0.37" stop-color="#252525"/><stop offset="0.5" stop-color="#424242"/><stop offset="0.63" stop-color="#676767"/><stop offset="0.76" stop-color="#949494"/><stop offset="0.89" stop-color="#c9c9c9"/><stop offset="1" stop-color="#fff"/></linearGradient><linearGradient id="linear-gradient-2" x1="24.27" y1="1.08" x2="24.27" y2="14.63" gradientUnits="userSpaceOnUse"><stop offset="0" stop-color="#c6ba91"/><stop offset="1" stop-color="#79693e"/></linearGradient><linearGradient id="linear-gradient-3" x1="23.05" y1="5.54" x2="26.59" y2="12.25" gradientUnits="userSpaceOnUse"><stop offset="0.13" stop-color="#4f4121"/><stop offset="0.38" stop-color="#d1c79f"/><stop offset="0.65" stop-color="#78683e"/><stop offset="0.79" stop-color="#6b5a30"/><stop offset="1" stop-color="#4f4121"/></linearGradient><linearGradient id="linear-gradient-4" x1="16.69" y1="7.31" x2="31.85" y2="7.31" gradientUnits="userSpaceOnUse"><stop offset="0.13" stop-color="#4f4121"/><stop offset="0.4" stop-color="#fff6cc"/><stop offset="0.48" stop-color="#e2d7ad"/><stop offset="0.69" stop-color="#8d7e54"/><stop offset="0.79" stop-color="#6b5a30"/><stop offset="0.88" stop-color="#cec298"/><stop offset="1" stop-color="#4f4121"/></linearGradient><linearGradient id="linear-gradient-5" x1="1.52" y1="27.05" x2="47.02" y2="27.05" gradientUnits="userSpaceOnUse"><stop offset="0" stop-color="#817358"/><stop offset="0.06" stop-color="#494134"/><stop offset="0.08" stop-color="#574e3e"/><stop offset="0.1" stop-color="#726851"/><stop offset="0.13" stop-color="#867a60"/><stop offset="0.16" stop-color="#928568"/><stop offset="0.19" stop-color="#96896b"/><stop offset="0.27" stop-color="#80745b"/><stop offset="0.38" stop-color="#685e4a"/><stop offset="0.5" stop-color="#574e3e"/><stop offset="0.63" stop-color="#4c4436"/><stop offset="0.78" stop-color="#494134"/><stop offset="0.94" stop-color="#817358"/><stop offset="1" stop-color="#2f2623"/></linearGradient><filter id="luminosity-noclip-2" x="1.52" y="24.77" width="45.51" height="4.55" filterUnits="userSpaceOnUse" color-interpolation-filters="sRGB"><feFlood flood-color="#fff" result="bg"/><feBlend in="SourceGraphic" in2="bg"/></filter><mask id="mask-2" x="1.52" y="24.77" width="45.51" height="4.55" maskUnits="userSpaceOnUse"><g class="cls-1"><path class="cls-2" d="M44.75,27.05A2.28,2.28,0,0,1,47,24.77H1.52a2.28,2.28,0,0,1,0,4.55H47A2.27,2.27,0,0,1,44.75,27.05Z"/></g></mask><linearGradient id="linear-gradient-6" x1="24.27" y1="29.32" x2="24.27" y2="24.77" gradientUnits="userSpaceOnUse"><stop offset="0" stop-color="#231f20"/><stop offset="0.32" stop-color="#272322"/><stop offset="0.65" stop-color="#332e29"/><stop offset="0.98" stop-color="#484033"/><stop offset="1" stop-color="#494134"/></linearGradient><linearGradient id="linear-gradient-7" x1="1.52" y1="22.75" x2="47.02" y2="22.75" gradientUnits="userSpaceOnUse"><stop offset="0" stop-color="#c6b986"/><stop offset="0.01" stop-color="#c8bc89"/><stop offset="0.02" stop-color="#d0c492"/><stop offset="0.03" stop-color="#ddd2a3"/><stop offset="0.04" stop-color="#f0e5b9"/><stop offset="0.04" stop-color="#fff6cc"/><stop offset="0.22" stop-color="#877543"/><stop offset="0.49" stop-color="#fff6cc"/><stop offset="0.52" stop-color="#f5ebc0"/><stop offset="0.74" stop-color="#a69667"/><stop offset="0.84" stop-color="#877543"/><stop offset="0.95" stop-color="#fff6cc"/><stop offset="1" stop-color="#c6b986"/></linearGradient><linearGradient id="linear-gradient-8" y1="73.01" x2="48.54" y2="73.01" gradientUnits="userSpaceOnUse"><stop offset="0" stop-color="#494134"/><stop offset="0.03" stop-color="#4c4436"/><stop offset="0.04" stop-color="#554d3d"/><stop offset="0.06" stop-color="#665c48"/><stop offset="0.08" stop-color="#7c7158"/><stop offset="0.09" stop-color="#96896b"/><stop offset="0.27" stop-color="#494134"/><stop offset="0.55" stop-color="#bdb697"/><stop offset="0.71" stop-color="#6c6552"/><stop offset="0.78" stop-color="#494134"/><stop offset="0.92" stop-color="#96896b"/><stop offset="1" stop-color="#494134"/></linearGradient><linearGradient id="linear-gradient-9" x1="1.52" y1="48.5" x2="47.02" y2="48.5" xlink:href="#linear-gradient-7"/><linearGradient id="linear-gradient-10" x1="0" y1="17.65" x2="48.54" y2="17.65" xlink:href="#linear-gradient-7"/><linearGradient id="linear-gradient-11" y1="19.94" x2="48.54" y2="19.94" xlink:href="#linear-gradient-8"/><linearGradient id="linear-gradient-12" y1="15.37" x2="48.54" y2="15.37" gradientUnits="userSpaceOnUse"><stop offset="0" stop-color="#e3d49a"/><stop offset="0.03" stop-color="#e4d59d"/><stop offset="0.05" stop-color="#e7daa6"/><stop offset="0.07" stop-color="#ede2b7"/><stop offset="0.09" stop-color="#f4edcd"/><stop offset="0.1" stop-color="#fefbea"/><stop offset="0.1" stop-color="#fffced"/><stop offset="0.27" stop-color="#ad9656"/><stop offset="0.49" stop-color="#fffbe8"/><stop offset="0.53" stop-color="#f2ebd1"/><stop offset="0.71" stop-color="#bdaa78"/><stop offset="0.78" stop-color="#a89154"/><stop offset="0.91" stop-color="#fffcf0"/><stop offset="1" stop-color="#c6b986"/></linearGradient><linearGradient id="linear-gradient-13" x1="0" y1="70.71" x2="48.54" y2="70.71" xlink:href="#linear-gradient-7"/><linearGradient id="linear-gradient-14" y1="68.44" x2="48.54" y2="68.44" xlink:href="#linear-gradient-12"/></defs><g id="Layer_2" data-name="Layer 2"><g id="Layer_1-2" data-name="Layer 1"><path id="_19-2" data-name="19-2" class="cls-3" d="M24.27,1.08a6.5,6.5,0,0,0-6.5,6.5v7.05h13v-7A6.5,6.5,0,0,0,24.27,1.08Zm0,10.57a3.8,3.8,0,1,1,3.79-3.79A3.79,3.79,0,0,1,24.27,11.65Z"/><path id="_19-1" data-name="19-1" class="cls-4" d="M24.27,4.06a3.8,3.8,0,1,0,3.79,3.8A3.8,3.8,0,0,0,24.27,4.06Zm0,6.5A2.71,2.71,0,1,1,27,7.86,2.71,2.71,0,0,1,24.27,10.56Z"/><path id="_19-3" data-name="19-3" class="cls-5" d="M24.27,0a7.59,7.59,0,0,0-7.58,7.58v7.05h1.08v-7a6.5,6.5,0,0,1,13,0v7.05h1.08v-7A7.59,7.59,0,0,0,24.27,0Z"/><g id="w-02"><path class="cls-6" d="M44.75,27.05A2.28,2.28,0,0,1,47,24.77H1.52a2.28,2.28,0,0,1,0,4.55H47A2.27,2.27,0,0,1,44.75,27.05Z"/><g class="cls-7"><path class="cls-8" d="M44.75,27.05A2.28,2.28,0,0,1,47,24.77H1.52a2.28,2.28,0,0,1,0,4.55H47A2.27,2.27,0,0,1,44.75,27.05Z"/></g><rect class="cls-9" x="1.52" y="20.73" width="45.51" height="4.05"/><polygon class="cls-10" points="47.02 73.79 1.52 73.79 0 72.23 48.54 72.23 47.02 73.79"/><rect class="cls-11" x="1.52" y="29.32" width="45.51" height="38.35"/><rect class="cls-12" y="16.13" width="48.54" height="3.03"/><polygon class="cls-13" points="47.02 20.73 1.52 20.73 0 19.16 48.54 19.16 47.02 20.73"/><polygon class="cls-14" points="48.54 16.13 0 16.13 1.52 14.61 47.02 14.61 48.54 16.13"/><rect class="cls-15" y="69.19" width="48.54" height="3.03"/><polygon class="cls-16" points="48.54 69.19 0 69.19 1.52 67.68 47.02 67.68 48.54 69.19"/></g></g></g></svg>