<svg xmlns="http://www.w3.org/2000/svg" xmlns:xlink="http://www.w3.org/1999/xlink" viewBox="0 0 33.85 46.57"><defs><style>.cls-1{fill:url(#linear-gradient);}.cls-2{fill:url(#linear-gradient-2);}.cls-3{fill:url(#linear-gradient-3);}.cls-4{fill:url(#linear-gradient-4);}.cls-5{fill:url(#linear-gradient-5);}.cls-6{fill:url(#linear-gradient-6);}.cls-7{fill:url(#linear-gradient-7);}.cls-8{fill:url(#linear-gradient-8);}</style><linearGradient id="linear-gradient" y1="44.71" x2="33.85" y2="44.71" gradientUnits="userSpaceOnUse"><stop offset="0" stop-color="#c6b986"/><stop offset="0.06" stop-color="#c3b683"/><stop offset="0.11" stop-color="#baad7a"/><stop offset="0.15" stop-color="#ac9c6a"/><stop offset="0.19" stop-color="#978654"/><stop offset="0.22" stop-color="#877543"/><stop offset="0.84" stop-color="#877543"/><stop offset="1" stop-color="#c6b986"/></linearGradient><linearGradient id="linear-gradient-2" y1="27.52" x2="33.85" y2="27.52" gradientUnits="userSpaceOnUse"><stop offset="0" stop-color="#c6b986"/><stop offset="0.01" stop-color="#c8bc89"/><stop offset="0.02" stop-color="#d0c492"/><stop offset="0.03" stop-color="#ddd2a3"/><stop offset="0.04" stop-color="#f0e5b9"/><stop offset="0.04" stop-color="#fff6cc"/><stop offset="0.22" stop-color="#877543"/><stop offset="0.49" stop-color="#fff6cc"/><stop offset="0.52" stop-color="#f5ebc0"/><stop offset="0.74" stop-color="#a69667"/><stop offset="0.84" stop-color="#877543"/><stop offset="0.95" stop-color="#fff6cc"/><stop offset="1" stop-color="#c6b986"/></linearGradient><linearGradient id="linear-gradient-3" x1="12.38" y1="1.78" x2="27.44" y2="31.73" gradientUnits="userSpaceOnUse"><stop offset="0" stop-color="#c6b986"/><stop offset="0.06" stop-color="#c3b683"/><stop offset="0.11" stop-color="#baad7a"/><stop offset="0.15" stop-color="#ac9c6a"/><stop offset="0.19" stop-color="#978654"/><stop offset="0.22" stop-color="#877543"/><stop offset="0.49" stop-color="#fff6cc"/><stop offset="0.52" stop-color="#f5ebc0"/><stop offset="0.74" stop-color="#a69667"/><stop offset="0.84" stop-color="#877543"/><stop offset="0.95" stop-color="#fff6cc"/><stop offset="1" stop-color="#c6b986"/></linearGradient><linearGradient id="linear-gradient-4" y1="11.47" x2="33.85" y2="11.47" gradientUnits="userSpaceOnUse"><stop offset="0.07" stop-color="#877543"/><stop offset="0.35" stop-color="#fff6cc"/><stop offset="0.39" stop-color="#f5ebc0"/><stop offset="0.71" stop-color="#a69667"/><stop offset="0.85" stop-color="#877543"/><stop offset="0.95" stop-color="#fff6cc"/></linearGradient><linearGradient id="linear-gradient-5" y1="44.34" x2="33.85" y2="44.34" xlink:href="#linear-gradient-2"/><linearGradient id="linear-gradient-6" x1="16.93" y1="0.81" x2="16.93" y2="10.88" gradientUnits="userSpaceOnUse"><stop offset="0" stop-color="#c6ba91"/><stop offset="1" stop-color="#79693e"/></linearGradient><linearGradient id="linear-gradient-7" x1="16.02" y1="4.12" x2="18.66" y2="9.11" gradientUnits="userSpaceOnUse"><stop offset="0.13" stop-color="#4f4121"/><stop offset="0.38" stop-color="#d1c79f"/><stop offset="0.65" stop-color="#78683e"/><stop offset="0.79" stop-color="#6b5a30"/><stop offset="1" stop-color="#4f4121"/></linearGradient><linearGradient id="linear-gradient-8" x1="11.28" y1="5.44" x2="22.57" y2="5.44" gradientUnits="userSpaceOnUse"><stop offset="0.13" stop-color="#4f4121"/><stop offset="0.4" stop-color="#fff6cc"/><stop offset="0.48" stop-color="#e2d7ad"/><stop offset="0.69" stop-color="#8d7e54"/><stop offset="0.79" stop-color="#6b5a30"/><stop offset="0.88" stop-color="#cec298"/><stop offset="1" stop-color="#4f4121"/></linearGradient></defs><g id="Layer_2" data-name="Layer 2"><g id="Desktop"><g id="page_04"><g id="New_Symbol_16" data-name="New Symbol 16"><ellipse class="cls-1" cx="16.93" cy="44.71" rx="16.93" ry="1.86"/><rect class="cls-2" y="10.78" width="33.85" height="33.49"/><ellipse class="cls-3" cx="16.93" cy="10.82" rx="16.93" ry="1.41"/><path class="cls-4" d="M16.93,12C8,12,.74,11.43.07,10.71a.15.15,0,0,0-.07.11c0,.77,7.58,1.4,16.93,1.4s16.92-.63,16.92-1.4a.17.17,0,0,0-.06-.11C33.11,11.43,25.83,12,16.93,12Z"/><ellipse class="cls-5" cx="16.93" cy="44.34" rx="16.93" ry="1.86"/><path id="_19-2" data-name="19-2" class="cls-6" d="M16.93.81a4.84,4.84,0,0,0-4.84,4.83v5.24h9.67V5.64A4.83,4.83,0,0,0,16.93.81Zm0,7.85a2.82,2.82,0,1,1,2.82-2.82A2.82,2.82,0,0,1,16.93,8.66Z"/><path id="_19-1" data-name="19-1" class="cls-7" d="M16.93,3a2.82,2.82,0,1,0,2.82,2.82A2.82,2.82,0,0,0,16.93,3Zm0,4.84a2,2,0,1,1,2-2A2,2,0,0,1,16.93,7.86Z"/><path id="_19-3" data-name="19-3" class="cls-8" d="M16.93,0a5.65,5.65,0,0,0-5.65,5.64v5.24h.81V5.64a4.84,4.84,0,0,1,9.67,0v5.24h.81V5.64A5.65,5.65,0,0,0,16.93,0Z"/></g></g></g></g></svg>